<?xml version="1.0" encoding="utf-8"?>
<!-- Generator: Adobe Illustrator 24.1.3, SVG Export Plug-In . SVG Version: 6.00 Build 0)  -->
<svg version="1.1" id="Layer_1" xmlns="http://www.w3.org/2000/svg" xmlns:xlink="http://www.w3.org/1999/xlink" x="0px" y="0px"
	 viewBox="0 0 24 24" style="enable-background:new 0 0 24 24;" xml:space="preserve">
<style type="text/css">
	.st0{fill:none;}
</style>
<path class="st0" d="M0,0h24v24H0V0z"/>
<path fill="#a7aaaf" d="M20.6,12.1l-7.7-7.7c-0.3-0.3-0.7-0.5-1.2-0.5h-6c-0.9,0-1.7,0.8-1.7,1.7v6c0,0.5,0.2,0.9,0.5,1.2l7.7,7.7
	c0.3,0.3,0.7,0.5,1.2,0.5c0.5,0,0.9-0.2,1.2-0.5l6-6c0.3-0.3,0.5-0.7,0.5-1.2S20.9,12.4,20.6,12.1z M6.9,8.2c-0.7,0-1.3-0.6-1.3-1.3
	c0-0.7,0.6-1.3,1.3-1.3c0.7,0,1.3,0.6,1.3,1.3C8.2,7.6,7.6,8.2,6.9,8.2z"/>
</svg>
