<?xml version="1.0" encoding="utf-8"?>
<!-- Generator: Adobe Illustrator 22.1.0, SVG Export Plug-In . SVG Version: 6.00 Build 0)  -->
<svg version="1.1" id="Layer_1" xmlns="http://www.w3.org/2000/svg" xmlns:xlink="http://www.w3.org/1999/xlink" x="0px" y="0px"
	 viewBox="0 0 48 48" style="enable-background:new 0 0 48 48;" xml:space="preserve">
<style type="text/css">
	.st0{fill:#1D1D1B;}
</style>
<path class="st0" d="M15.6,9.7c-1.9,0-3.2,1.3-3.2,2.9c0,1.6,1.2,2.9,3.1,2.9h0c2,0,3.2-1.3,3.2-2.9C18.6,10.9,17.5,9.7,15.6,9.7z"
	/>
<path class="st0" d="M32,17.4c-3,0-4.3,1.6-5,2.8v-2.4h-5.6c0.1,1.6,0,16.8,0,16.8H27v-9.4c0-0.5,0-1,0.2-1.4c0.4-1,1.3-2,2.9-2
	c2,0,2.8,1.5,2.8,3.8v9h5.6V25C38.5,19.8,35.7,17.4,32,17.4z"/>
<rect x="12.7" y="17.8" class="st0" width="5.6" height="16.8"/>
</svg>
