<?xml version="1.0" encoding="utf-8"?>
<!-- Generator: Adobe Illustrator 22.1.0, SVG Export Plug-In . SVG Version: 6.00 Build 0)  -->
<svg version="1.1" id="Layer_1" xmlns="http://www.w3.org/2000/svg" xmlns:xlink="http://www.w3.org/1999/xlink" x="0px" y="0px"
	 viewBox="0 0 48 48" style="enable-background:new 0 0 48 48;" xml:space="preserve">
<path d="M11.3,32.8c0,0,7.3-0.9,7.4-2.5c-0.5-0.2-3.3-0.1-4.9-3.8c1.8,0.2,2.3-0.2,2.3-0.2S11.8,24.6,12,21c1.5,0.6,2.5,0.5,2.5,0.5
	c-1.2-0.7-3.6-3.3-1.9-7.5c0.8,1,4.9,5.7,11.5,5.7c-0.1-1.9-0.3-5.3,3.8-6.5c3.6-1,5,1.2,5.6,1.4c1.2,0.3,2.9-0.8,3.6-1.1
	c0.1,0.7-2,2.9-2,2.9s1.8-0.2,2.6-0.7c0,0.7-2.6,2.8-2.6,2.8s-0.4,5.6-1.3,7.6c-1,1.9-5.4,8.3-12.5,8.9
	C15.3,35.5,11.3,32.8,11.3,32.8z"/>
</svg>
